<?xml version="1.0" standalone="no"?>
<!DOCTYPE svg PUBLIC "-//W3C//DTD SVG 20010904//EN"
 "http://www.w3.org/TR/2001/REC-SVG-20010904/DTD/svg10.dtd">
<svg version="1.0" xmlns="http://www.w3.org/2000/svg"
 width="500.000000pt" height="500.000000pt" viewBox="0 0 500.000000 500.000000"
 preserveAspectRatio="xMidYMid meet">
<metadata>
Created by potrace 1.16, written by Peter Selinger 2001-2019
</metadata>
<g transform="translate(0.000000,500.000000) scale(0.100000,-0.100000)"
fill="#000000" stroke="none">
<path d="M1299 4964 c-9 -3 -23 -29 -32 -62 -11 -39 -29 -70 -55 -98 -42 -44
-51 -45 -99 -1 -15 13 -28 17 -40 12 -10 -5 -45 -11 -78 -14 -55 -5 -60 -8
-63 -31 -3 -24 -26 -50 -44 -50 -4 0 -8 20 -8 44 0 25 -4 47 -9 50 -4 3 -23 1
-42 -5 -47 -14 -184 -23 -304 -21 -90 3 -103 1 -123 -18 -16 -15 -27 -18 -39
-12 -22 12 -161 25 -273 26 l-85 1 -3 -37 -3 -38 48 0 c58 0 93 -21 93 -56 0
-13 9 -32 20 -41 32 -28 24 -40 -24 -41 -52 -1 -120 -27 -111 -42 9 -14 200
-12 395 5 91 8 166 14 168 15 1 0 2 5 2 10 0 6 -48 10 -125 10 -139 0 -146 3
-128 63 11 41 42 46 77 14 l27 -25 48 20 c26 11 56 33 67 49 10 16 25 31 33
34 15 6 68 -24 92 -53 9 -11 22 -21 27 -23 7 -3 8 -16 3 -40 -6 -25 -4 -47 5
-69 18 -42 19 -40 -15 -34 -26 6 -30 3 -41 -30 -7 -23 -22 -42 -41 -51 -31
-16 -41 -55 -14 -55 8 0 15 -7 15 -15 0 -26 -37 -89 -59 -103 -17 -10 -31 -52
-17 -52 2 0 33 28 69 63 35 34 76 70 91 80 14 10 26 26 26 36 0 9 17 29 38 42
20 14 58 40 83 58 37 26 63 35 144 48 76 12 106 13 135 4 56 -16 63 -15 56 14
-8 31 7 32 52 5 35 -22 42 -46 15 -52 -14 -3 -9 -12 26 -45 46 -43 49 -64 11
-98 -15 -14 -17 -21 -8 -41 13 -28 15 -29 61 -9 54 22 80 19 104 -13 18 -25
24 -37 39 -94 3 -10 1 -18 -5 -18 -6 0 -11 9 -11 19 0 24 -55 47 -77 32 -18
-12 -59 -96 -56 -113 2 -9 -1 -19 -6 -23 -30 -18 -2 -25 99 -25 61 0 110 2
110 4 0 3 -11 35 -24 73 -29 79 -47 153 -37 153 3 0 19 -16 36 -35 25 -29 36
-35 70 -35 22 1 51 7 65 15 42 24 53 19 46 -20 -6 -31 -4 -36 16 -44 46 -17
121 12 169 66 18 21 29 44 27 56 -4 28 38 70 71 70 28 0 59 -33 67 -72 3 -14
12 -44 20 -66 21 -62 18 -111 -8 -130 -22 -16 1 -17 342 -11 201 4 558 11 793
17 236 6 443 8 460 5 41 -8 67 -33 67 -64 0 -18 -25 -48 -96 -116 -97 -92
-168 -140 -192 -131 -8 3 -10 0 -6 -7 5 -8 2 -9 -9 -5 -9 3 -19 1 -23 -5 -5
-7 -2 -8 6 -3 9 6 11 4 6 -4 -5 -7 -15 -10 -23 -7 -8 3 -12 2 -10 -2 8 -11
-87 -72 -119 -76 -16 -2 -60 -20 -97 -41 l-68 -38 20 34 c12 19 21 39 21 46 0
38 -99 64 -101 26 0 -11 -3 -13 -6 -5 -5 13 -65 15 -146 4 l-48 -7 20 -21 c19
-21 19 -22 1 -27 -13 -3 -24 3 -35 19 -12 19 -24 24 -55 24 -22 0 -40 -2 -40
-4 0 -2 16 -52 35 -112 19 -59 35 -109 35 -110 0 -1 -18 7 -39 18 -34 17 -41
26 -52 71 -7 29 -12 58 -11 65 2 6 -6 12 -17 12 -17 0 -20 5 -14 31 l6 30
-219 -6 c-331 -9 -386 -13 -382 -33 3 -13 14 -17 45 -17 23 0 45 -3 49 -7 4
-5 -15 -8 -43 -8 l-50 0 -7 -127 c-13 -258 -6 -288 81 -362 38 -33 38 -33 3
-10 -19 13 -37 26 -40 29 -3 3 -15 14 -27 24 l-23 19 0 -36 c0 -24 5 -37 13
-37 7 0 35 -11 63 -24 27 -13 58 -23 69 -22 25 2 73 30 133 77 29 22 57 36 72
35 14 -1 28 3 32 8 3 5 22 9 42 8 23 -1 38 4 44 15 8 13 12 10 26 -17 22 -44
21 -47 -15 -54 -17 -3 -45 -16 -62 -28 -28 -20 -44 -23 -125 -23 -81 0 -95 -3
-108 -20 -16 -22 -12 -88 11 -170 8 -30 18 -150 25 -300 6 -137 12 -286 14
-330 l4 -80 -8 82 c-5 46 -11 87 -14 91 -3 5 -8 119 -12 253 -4 173 -10 254
-20 278 -8 18 -14 50 -14 70 0 59 -9 75 -51 93 -31 13 -41 14 -45 5 -3 -8 -18
-11 -39 -9 -35 4 -35 4 -34 -34 2 -31 3 -33 6 -11 4 22 9 27 34 27 17 0 32 -6
35 -15 7 -18 45 -20 62 -3 9 9 12 7 12 -9 0 -12 -8 -24 -17 -26 -17 -4 -17 -5
0 -6 18 -1 23 -16 8 -25 -5 -4 -11 0 -14 6 -2 7 -14 -9 -27 -35 -17 -36 -20
-51 -11 -60 8 -8 11 -6 12 9 0 10 9 -3 19 -31 l18 -50 5 50 c3 34 4 24 4 -30
-1 -44 1 -85 5 -90 10 -18 19 -141 9 -125 -6 8 -13 11 -17 7 -9 -9 16 -38 27
-31 5 3 9 -3 9 -13 0 -10 3 -28 6 -40 5 -17 2 -23 -10 -23 -22 0 -21 -17 2
-23 9 -3 2 -5 -16 -6 -20 -1 -31 3 -27 9 3 6 1 10 -4 10 -6 0 -11 -6 -11 -14
0 -10 -17 -17 -57 -21 -79 -9 -83 -11 -83 -41 0 -25 2 -26 38 -20 102 19 164
27 167 24 2 -1 -3 -37 -10 -78 -8 -41 -14 -94 -14 -118 -1 -26 -5 -41 -11 -37
-5 3 -10 2 -10 -3 0 -6 -9 -8 -20 -5 -11 3 -26 0 -34 -6 -11 -10 -16 -8 -21 8
-3 12 -11 21 -17 21 -5 0 -8 -6 -5 -14 5 -11 -2 -13 -28 -10 l-35 4 2 -45 c2
-39 5 -45 24 -45 12 0 24 -5 26 -12 3 -7 9 -8 18 -3 21 13 70 16 70 5 0 -5 -8
-6 -17 -3 -15 6 -16 4 -5 -9 8 -10 9 -19 3 -22 -5 -3 -12 0 -15 6 -5 10 -7 10
-12 1 -8 -19 -41 -16 -48 4 -6 15 -9 15 -28 -5 -21 -21 -37 -99 -18 -87 6 4
10 13 10 20 0 11 6 12 26 5 33 -13 34 -13 34 5 0 19 49 20 75 1 18 -13 18 -14
-5 -26 -17 -9 -20 -14 -9 -21 11 -6 10 -9 -4 -15 -25 -9 -21 -24 8 -24 14 0
25 -5 25 -10 0 -6 6 -9 13 -8 12 3 16 -22 17 -131 0 -58 15 -61 23 -6 2 17 5
-9 6 -56 1 -98 -7 -158 -20 -138 -4 8 -12 10 -16 5 -4 -4 2 -15 13 -25 17 -13
22 -32 27 -86 3 -39 3 -62 1 -52 -6 18 -24 24 -24 8 0 -20 13 -41 21 -35 5 3
9 -10 10 -28 0 -18 4 -42 9 -53 8 -18 9 -17 9 7 1 15 5 29 9 32 5 3 4 -27 0
-65 -8 -63 -6 -74 13 -105 11 -19 27 -34 35 -34 8 0 14 -5 14 -12 0 -17 33
-88 41 -88 3 0 4 -12 2 -28 -3 -18 2 -13 15 18 46 112 156 246 267 325 168
120 405 162 617 111 198 -48 385 -202 483 -396 58 -115 69 -170 70 -325 0
-147 -8 -190 -53 -300 -92 -225 -326 -409 -563 -443 -42 -6 222 -10 768 -11
828 -1 832 -1 843 19 6 12 8 29 5 39 -4 14 3 25 24 40 20 14 33 34 37 56 4 22
12 35 21 35 12 0 14 7 9 28 -14 55 -12 67 12 70 14 2 29 -4 37 -15 12 -15 14
89 14 677 0 382 -3 690 -5 683 -3 -7 -12 -9 -20 -6 -7 3 -11 10 -8 15 4 6 2
13 -4 17 -6 4 -9 17 -5 29 4 17 11 21 24 17 16 -5 19 -1 19 24 0 33 -8 39 -28
19 -10 -10 -17 -10 -31 -1 -10 7 -29 9 -42 6 -18 -5 -21 -3 -16 10 8 20 -1 47
-15 47 -6 0 -8 -13 -4 -31 9 -46 -8 -69 -50 -69 -69 0 -89 27 -58 75 18 28 34
33 34 11 0 -29 19 -25 35 6 10 22 12 34 5 36 -6 2 -25 16 -41 32 l-31 27 29 7
c15 4 45 14 65 24 31 14 38 22 38 46 0 17 12 47 26 67 l26 38 -21 30 c-27 38
-26 53 4 101 31 49 31 50 0 50 -14 0 -25 4 -25 8 0 14 24 32 42 32 18 0 36 26
25 36 -3 3 -22 1 -42 -6 -42 -14 -115 -4 -115 15 0 8 9 17 20 20 14 4 20 15
20 34 0 16 7 35 16 42 12 9 14 23 10 49 -5 29 -2 38 17 52 22 17 22 17 3 31
-19 14 -19 16 12 47 35 35 37 55 6 55 -10 0 -30 15 -43 33 -15 20 -33 32 -47
32 -35 0 -40 21 -11 42 15 11 27 26 27 34 0 8 10 14 25 14 17 0 29 -9 40 -30
9 -17 20 -28 25 -25 7 4 6 13 0 25 -14 27 -12 63 5 86 14 19 14 19 15 -3 0
-12 4 -24 9 -27 13 -8 32 19 25 37 -3 8 -1 18 5 22 12 7 14 78 5 148 -6 40
-10 46 -33 50 l-26 4 33 14 32 13 0 914 0 914 -1432 -3 c-788 -2 -1508 -5
-1599 -7 l-166 -4 -13 -36 c-7 -21 -15 -60 -16 -89 -2 -29 -8 -61 -13 -72 -8
-14 -8 -22 -1 -26 8 -5 7 -11 -1 -21 -6 -7 -9 -20 -6 -29 4 -8 2 -17 -3 -20
-15 -10 -12 -52 6 -69 22 -23 13 -30 -61 -51 -49 -14 -65 -23 -65 -37 0 -10 6
-18 14 -18 22 0 29 -18 14 -34 -7 -7 -31 -34 -52 -60 -21 -25 -45 -46 -52 -46
-7 0 -21 12 -31 26 -10 14 -30 40 -45 57 -16 16 -28 38 -28 49 0 16 -2 17 -14
6 -8 -7 -12 -16 -9 -20 2 -5 -1 -8 -6 -8 -6 0 -11 18 -11 41 0 22 -4 38 -8 35
-5 -3 -8 15 -7 40 1 25 -3 48 -8 51 -6 3 -7 1 -3 -5 4 -7 3 -12 -2 -12 -16 0
-12 148 4 154 8 3 14 13 14 22 0 10 6 14 14 11 11 -4 12 2 6 29 -6 26 -5 34 6
34 8 0 14 8 14 18 0 20 53 44 77 35 11 -5 14 -3 9 6 -5 7 -16 11 -26 8 -13 -3
-16 0 -13 14 4 15 0 19 -24 19 -17 0 -57 2 -89 4 -32 3 -66 3 -75 0z m1411
-1989 c0 -18 16 -20 24 -2 4 6 4 2 2 -11 -3 -17 -1 -22 9 -18 9 3 12 0 8 -9
-3 -8 -9 -12 -14 -9 -5 3 -9 0 -9 -7 0 -11 -16 -9 -51 5 -13 6 -15 2 -11 -19
3 -17 -1 -30 -9 -36 -11 -7 -10 -9 4 -9 10 0 22 10 27 23 5 12 9 17 9 10 1 -7
7 -10 15 -7 8 3 17 0 21 -5 3 -6 11 -8 17 -5 6 4 8 -1 6 -12 -2 -11 -9 -20
-16 -20 -36 -4 -37 -4 -22 -14 19 -12 20 -121 1 -144 -7 -9 -9 -16 -4 -16 5 0
10 -7 10 -15 0 -8 -5 -15 -11 -15 -6 0 -6 -4 1 -11 9 -9 8 -17 -2 -33 -7 -11
-11 -29 -10 -38 2 -10 -1 -18 -6 -18 -5 0 -9 -6 -9 -14 0 -9 7 -13 20 -11 11
2 23 -2 26 -8 4 -7 4 -9 -1 -5 -17 16 -34 -12 -24 -39 7 -20 7 -24 -5 -20 -11
5 -12 -1 -3 -31 9 -27 9 -36 -1 -40 -7 -2 -10 -8 -6 -13 3 -5 -8 -9 -24 -9
-16 0 -57 -3 -91 -6 -52 -6 -61 -5 -61 10 0 9 -7 16 -16 16 -9 0 -18 9 -21 20
-6 21 -23 28 -23 9 0 -7 -8 -6 -22 4 -31 20 -29 41 5 44 15 1 27 -2 27 -8 0
-19 21 -8 30 16 5 14 12 25 15 25 4 0 3 -6 -1 -12 -4 -8 -3 -9 2 -5 5 5 9 16
9 25 0 9 7 17 15 17 24 0 60 24 60 40 0 13 -19 19 -57 18 -7 -1 -10 4 -7 9 4
5 -11 8 -35 5 -22 -2 -38 0 -36 4 3 4 1 19 -4 33 -9 21 -8 24 6 19 11 -4 14
-2 11 8 -3 8 -12 13 -21 13 -10 -1 -13 4 -10 14 4 9 2 13 -4 9 -19 -12 -24 25
-6 39 14 10 15 15 6 25 -8 8 -9 16 -3 24 7 8 0 26 -22 56 -17 24 -24 38 -15
30 12 -9 17 -10 17 -2 0 7 4 10 10 6 5 -3 7 -13 4 -23 -4 -12 -3 -13 3 -5 5 7
19 11 31 8 17 -3 22 1 22 16 0 22 -17 26 -22 4 -2 -11 -7 -12 -18 -4 -9 6 -11
12 -4 15 5 2 9 17 8 32 -1 15 3 34 10 43 16 21 84 35 138 29 34 -4 49 -2 52 7
7 19 56 17 56 -2z m1950 -1186 c11 -41 5 -69 -16 -69 -10 0 -11 6 -4 26 10 25
9 26 -12 19 -13 -3 -39 -10 -58 -15 -19 -5 -45 -12 -57 -15 -18 -6 -26 -1 -42
26 -15 24 -17 36 -9 46 13 16 60 17 76 1 10 -10 19 -5 44 20 30 29 33 30 50
15 10 -9 23 -33 28 -54z"/>
<path d="M196 4108 c-16 -33 -21 -58 -18 -90 3 -26 73 -25 97 2 10 11 23 20
29 19 6 0 6 -3 -1 -6 -16 -6 -17 -23 -2 -23 16 0 82 49 102 76 18 24 18 24
-13 24 -17 0 -39 -9 -50 -20 -22 -22 -50 -17 -43 9 3 11 -4 21 -22 29 -43 20
-63 15 -79 -20z"/>
<path d="M1309 3643 c-1 -16 -2 -41 -3 -57 -2 -34 -29 -56 -69 -56 -15 0 -38
-5 -50 -12 -15 -8 -93 -13 -237 -15 -347 -5 -380 -8 -380 -38 0 -28 -48 -26
-95 4 -44 28 -48 29 -79 16 -29 -12 -36 -12 -52 0 -24 18 -58 18 -108 1 -34
-12 -47 -11 -105 4 -36 9 -81 24 -98 34 l-33 17 0 -85 0 -86 26 11 c15 5 34 7
43 4 9 -2 36 -7 61 -10 53 -7 64 -16 83 -73 15 -42 14 -42 -13 -66 -24 -20
-35 -22 -69 -16 -22 4 -46 12 -53 17 -7 6 -28 15 -45 21 l-33 11 0 -820 0
-820 26 20 c27 22 61 25 126 15 36 -6 38 -9 38 -44 0 -22 -8 -48 -20 -63 -28
-36 -50 -91 -50 -127 0 -29 -13 -40 -25 -20 -7 12 -55 14 -55 2 0 -4 6 -14 12
-20 10 -10 10 -15 -2 -22 -8 -5 -23 -10 -32 -10 -16 0 -17 -47 -18 -680 l0
-680 1517 1 c850 1 1493 5 1461 10 -175 25 -374 151 -484 305 l-45 63 -40 -26
c-21 -14 -39 -29 -39 -33 0 -13 -231 -172 -313 -215 -139 -74 -174 -81 -387
-76 -343 6 -455 6 -494 -1 l-39 -7 70 72 c167 171 236 359 262 702 12 151 16
2648 5 2703 -5 27 -9 30 -25 22 -25 -14 -39 -12 -39 5 0 8 16 21 35 29 24 10
35 22 35 35 0 26 -15 26 -68 1 -22 -11 -49 -20 -58 -20 -11 0 -15 6 -11 20 4
14 0 20 -11 20 -12 0 -6 10 18 30 l35 29 -37 1 c-35 0 -38 -3 -39 -27z m-416
-279 l38 -7 -41 -18 c-23 -10 -60 -24 -83 -30 -23 -6 -63 -22 -89 -35 -94 -48
-277 -19 -242 38 4 6 10 5 16 -3 7 -11 11 -11 15 -1 2 6 12 12 21 12 8 0 24 7
34 16 26 24 149 25 172 1 24 -23 41 -21 70 8 27 27 32 28 89 19z m-330 -190
c8 -8 -33 -75 -63 -101 -14 -12 -35 -23 -47 -23 -26 0 -63 32 -63 56 0 19 19
56 34 66 13 9 130 11 139 2z m432 -1518 c14 -83 23 -170 19 -178 -13 -21 -65
14 -100 67 -9 14 -23 24 -30 21 -10 -4 -11 0 -2 19 6 13 16 21 23 19 6 -3 18
3 26 12 12 15 12 16 -9 10 -23 -8 -27 0 -16 39 4 16 14 21 44 21 37 1 40 -1
45 -30z"/>
<path d="M2200 2390 c-8 -11 -49 -30 -90 -43 l-75 -23 -2 -59 c-1 -33 0 -55 3
-48 3 7 12 9 21 6 10 -4 14 -2 10 4 -9 15 13 31 46 35 16 3 32 8 35 14 4 5 19
15 35 23 18 10 27 23 28 40 0 14 2 36 5 49 5 27 3 27 -16 2z"/>
<path d="M2016 1604 c-3 -9 -6 -97 -7 -197 0 -346 -15 -572 -42 -667 -44 -153
-87 -240 -150 -308 -23 -23 -28 -35 -20 -43 17 -17 385 -6 519 16 l111 18 -31
86 c-30 82 -31 93 -32 251 -1 160 -1 165 -22 168 -11 2 -31 -2 -44 -8 -22 -11
-22 -10 2 10 16 14 34 20 52 18 26 -4 28 -2 28 32 0 49 -17 98 -49 138 -48 62
-61 87 -61 115 0 28 -22 61 -33 50 -3 -3 -18 4 -33 16 -15 11 -32 21 -38 21
-16 0 -66 24 -66 31 0 9 51 27 79 27 13 1 31 9 40 18 15 15 15 16 -1 11 -19
-7 -33 19 -16 29 7 4 5 10 -6 16 -9 5 -20 7 -25 4 -5 -3 -11 4 -14 15 -4 15
-11 20 -21 16 -10 -4 -16 -1 -16 9 0 8 4 13 9 10 5 -3 11 3 14 13 3 15 1 18
-11 14 -11 -5 -14 -2 -9 10 3 9 2 17 -3 17 -6 0 -10 -6 -11 -12 0 -7 -5 -3
-11 9 -6 13 -19 25 -29 28 -11 4 -25 13 -33 20 -12 13 -15 12 -20 -1z m244
-403 c0 -5 -12 -32 -26 -60 -26 -49 -27 -81 -3 -81 8 0 8 4 0 14 -10 12 -9 20
1 38 l13 23 3 -29 c2 -17 1 -49 -3 -73 -5 -34 -10 -43 -26 -43 -10 0 -19 5
-19 11 0 5 -8 9 -17 8 -27 -4 -73 10 -73 22 0 6 -4 7 -10 4 -5 -3 -10 3 -10
15 0 22 104 130 126 130 6 0 14 7 18 15 6 16 26 21 26 6z"/>
</g>
</svg>
