<?xml version="1.0" standalone="no"?>
<!DOCTYPE svg PUBLIC "-//W3C//DTD SVG 20010904//EN"
 "http://www.w3.org/TR/2001/REC-SVG-20010904/DTD/svg10.dtd">
<svg version="1.0" xmlns="http://www.w3.org/2000/svg"
 width="500.000000pt" height="500.000000pt" viewBox="0 0 500.000000 500.000000"
 preserveAspectRatio="xMidYMid meet">
<metadata>
Created by potrace 1.16, written by Peter Selinger 2001-2019
</metadata>
<g transform="translate(0.000000,500.000000) scale(0.100000,-0.100000)"
fill="#000000" stroke="none">
<path d="M1504 3855 c-9 -13 -60 -56 -114 -95 -116 -82 -144 -113 -135 -150 4
-14 8 -26 10 -28 7 -7 770 21 773 29 2 5 19 9 38 9 l34 0 2 -692 3 -693 108
-3 c94 -2 107 -1 107 14 0 22 54 115 80 139 11 10 20 26 20 36 0 9 4 19 9 21
6 2 14 243 21 568 6 311 13 574 16 586 4 21 9 21 246 26 173 4 245 2 250 -6 5
-6 8 -2 8 10 0 26 25 38 51 24 23 -13 24 -28 3 -58 -18 -26 -8 -29 24 -6 20
14 22 14 22 0 0 -9 3 -16 6 -16 18 0 319 188 331 207 21 31 2 60 -43 69 -19 3
-239 1 -487 -5 -249 -6 -628 -16 -843 -22 -425 -11 -449 -9 -438 36 8 31 -11
33 -42 4 l-23 -21 6 21 c8 30 -22 28 -43 -4z"/>
<path d="M3276 2742 c-3 -6 12 -12 37 -16 50 -8 107 -40 107 -60 0 -17 -67
-84 -115 -118 -17 -11 -36 -31 -41 -43 -10 -20 -9 -23 8 -20 11 2 47 24 81 49
142 101 159 143 76 184 -51 25 -143 40 -153 24z"/>
<path d="M2833 2589 c-66 -13 -128 -44 -177 -89 -62 -57 -88 -114 -89 -198
l-2 -67 33 -3 32 -3 0 59 c0 137 78 238 212 273 32 9 44 16 35 22 -7 5 -2 6
16 3 15 -4 27 -2 27 4 0 12 -27 11 -87 -1z"/>
<path d="M3030 2168 c-16 -27 -20 -50 -20 -129 0 -53 -3 -98 -6 -101 -14 -15
-43 7 -50 36 -3 17 -9 36 -12 41 -4 6 -7 15 -8 20 -6 36 -38 137 -46 141 -21
13 -66 -51 -102 -141 -28 -71 -46 -101 -69 -117 l-31 -22 30 -8 c31 -8 138 -7
126 2 -4 3 -8 12 -8 20 -1 8 -3 21 -5 28 -2 8 6 18 18 23 20 7 24 4 29 -18 5
-17 3 -28 -4 -31 -23 -7 -11 -20 26 -27 41 -7 223 -97 319 -157 73 -46 138
-115 165 -175 29 -66 26 -161 -8 -231 -73 -149 -370 -368 -602 -443 -103 -33
-91 -52 15 -25 218 53 539 279 642 450 42 71 52 157 26 235 -32 96 -148 198
-328 287 -42 21 -77 42 -77 46 0 3 9 10 20 13 18 6 20 12 15 58 l-6 52 55 -57
c50 -53 60 -58 108 -64 38 -4 64 -2 91 9 36 15 48 39 27 52 -16 10 -1 25 26
25 18 0 24 -5 24 -23 0 -13 -5 -28 -11 -34 -20 -20 0 -32 49 -27 68 6 83 6
118 -1 45 -10 121 29 141 71 15 30 15 35 0 57 -9 13 -33 33 -54 44 -62 33 -55
49 23 50 l66 1 -3 -102 c-2 -55 0 -107 5 -114 19 -31 126 16 126 55 0 7 -11
13 -25 13 -21 0 -25 5 -25 30 0 29 2 30 41 30 l42 0 -7 -65 c-6 -62 -6 -65 18
-71 53 -13 109 44 73 75 -13 10 -17 59 -4 53 4 -2 16 -6 28 -9 19 -5 21 -11
16 -53 -4 -29 -1 -52 6 -59 15 -15 91 -14 132 3 27 11 32 19 28 35 -4 17 -13
21 -44 21 -35 0 -39 3 -39 25 0 14 5 26 10 26 6 1 15 3 20 4 6 1 17 3 25 4 8
0 19 10 25 20 15 29 -12 52 -50 44 -26 -5 -30 -2 -30 16 0 17 6 21 35 21 44 0
83 34 64 56 -16 20 -140 19 -179 -1 -27 -14 -30 -14 -39 3 -9 16 -17 18 -56
12 -42 -6 -95 -41 -95 -62 0 -4 14 -8 30 -8 20 0 30 -5 30 -15 0 -10 -11 -15
-35 -15 -30 0 -35 3 -35 23 0 12 4 28 9 36 16 25 1 41 -41 41 -22 0 -49 -5
-60 -11 -14 -8 -23 -8 -31 0 -17 17 -74 13 -117 -9 -30 -15 -42 -29 -51 -60
-10 -33 -9 -43 5 -65 9 -14 33 -33 51 -42 36 -17 47 -43 19 -43 -8 0 -25 5
-36 11 -15 8 -27 8 -44 -2 -29 -15 -37 -8 -53 51 -36 129 -54 180 -64 180 -26
0 -58 -49 -97 -145 -23 -57 -49 -106 -57 -109 -23 -9 -13 193 11 206 34 19 18
38 -32 38 -62 0 -92 -20 -74 -49 6 -12 12 -40 12 -63 l0 -42 -44 47 c-31 32
-47 60 -53 89 -11 53 -27 58 -53 16z m772 -68 l-4 -50 62 0 62 0 -4 45 c-2 25
0 45 4 45 3 0 12 2 20 5 10 4 12 -17 8 -110 -4 -91 -2 -115 8 -115 7 0 10 -4
7 -10 -3 -5 -16 -10 -28 -10 -21 0 -22 4 -19 67 l3 68 -55 3 c-62 3 -61 4 -70
-70 -5 -41 -3 -48 12 -48 15 0 15 -2 2 -10 -8 -5 -22 -10 -30 -10 -13 0 -14
18 -12 115 3 91 1 115 -10 116 -10 1 19 13 42 18 3 1 3 -21 2 -49z"/>
<path d="M1138 2153 c-15 -16 -43 -71 -63 -123 -29 -78 -41 -98 -68 -113 -31
-18 -31 -18 -14 0 20 23 14 33 -20 33 -18 0 -23 6 -24 28 -2 34 2 116 6 120 1
1 19 4 38 5 41 4 44 6 47 27 6 40 3 41 -112 39 -118 -1 -148 -11 -148 -49 0
-21 19 -30 61 -30 l29 0 0 -77 c0 -70 -3 -80 -27 -105 -23 -24 -24 -28 -9 -34
23 -9 105 3 122 17 10 8 14 8 14 1 0 -6 19 -14 43 -17 57 -9 123 16 112 42
-12 31 -11 35 12 44 19 7 24 4 29 -16 4 -16 0 -30 -12 -42 -17 -17 -15 -18 29
-26 35 -5 55 -4 75 7 26 13 31 13 45 -1 20 -20 83 -10 99 17 11 18 13 18 37 1
43 -29 61 -32 92 -14 16 10 29 21 29 26 0 4 10 -1 21 -12 29 -26 69 -34 104
-21 22 8 35 8 51 -1 18 -9 32 -8 67 4 40 13 46 13 60 -1 14 -13 26 -14 82 -4
36 6 80 20 98 31 42 26 81 102 74 141 -7 32 5 40 59 40 39 0 38 -20 -3 -39
-21 -10 -24 -17 -20 -40 4 -20 -1 -38 -19 -64 -13 -20 -24 -43 -24 -51 0 -8
-4 -17 -9 -20 -4 -3 -13 -31 -20 -63 -16 -82 -62 -175 -117 -233 -40 -42 -44
-50 -26 -50 11 0 23 -3 25 -7 3 -5 106 -8 229 -8 220 0 224 0 278 26 62 30
249 159 250 173 0 5 -16 6 -35 3 -20 -3 -33 -3 -31 1 6 10 -37 11 -44 2 -8
-11 -92 -22 -85 -11 3 6 -31 8 -95 4 l-101 -6 29 44 c16 24 35 60 42 80 11 30
17 35 36 31 13 -2 24 0 24 5 0 5 16 40 36 77 l37 69 23 -63 c24 -68 39 -84 64
-70 26 14 35 29 73 129 20 51 44 99 54 107 14 10 16 16 7 31 -17 27 -87 23
-119 -7 -33 -31 -33 -54 0 -48 28 6 28 0 0 -64 -11 -29 -12 -29 -28 31 -9 33
-14 66 -11 74 3 8 -2 20 -11 27 -23 19 -83 5 -117 -27 -28 -27 -27 -38 4 -45
16 -3 16 -6 -1 -43 l-18 -40 -12 52 c-7 29 -10 57 -6 63 3 5 3 19 0 30 -7 23
-46 27 -91 10 -19 -8 -30 -8 -38 0 -5 5 -40 10 -78 10 -60 0 -71 -3 -101 -29
l-33 -30 -27 27 c-24 24 -36 27 -106 30 -63 3 -84 0 -106 -14 -25 -17 -28 -17
-37 -1 -18 33 -104 15 -132 -28 -17 -25 -12 -35 16 -35 16 0 18 -9 18 -69 0
-62 -2 -69 -22 -74 -44 -12 -58 8 -58 83 0 39 5 79 12 89 28 46 -30 68 -93 36
-26 -14 -30 -14 -35 0 -7 18 -74 21 -105 5 -13 -7 -19 -7 -19 0 0 5 -20 10
-45 10 -35 0 -52 -6 -76 -28 -34 -30 -33 -58 2 -47 15 5 19 1 20 -17 1 -20 1
-111 -1 -145 0 -8 -6 -8 -24 0 -19 9 -29 30 -51 112 -30 106 -41 135 -53 135
-5 0 -20 -12 -34 -27z m901 -28 c36 -18 55 -64 47 -109 -13 -67 -87 -116 -175
-116 l-34 0 7 110 c4 76 3 110 -4 110 -6 0 -8 5 -5 10 10 15 132 12 164 -5z
m364 7 c-9 -6 -6 -27 13 -87 37 -119 34 -113 49 -85 28 50 59 154 46 158 -18
6 -2 22 22 22 19 0 25 -10 40 -63 9 -35 24 -81 33 -102 l16 -40 19 35 c10 19
18 31 19 27 0 -12 -38 -85 -49 -91 -5 -4 -24 39 -43 95 l-33 100 -33 -80 c-18
-44 -41 -90 -51 -102 -17 -21 -18 -19 -51 90 -18 61 -37 111 -42 111 -5 0 -6
5 -3 10 3 6 18 10 33 10 17 0 22 -3 15 -8z m-28 -137 c15 -49 29 -94 31 -100
3 -6 -20 -10 -54 -11 l-59 0 29 24 c37 32 38 57 1 47 -16 -3 -45 -9 -66 -12
-37 -5 -37 -5 -26 20 6 14 25 31 40 38 29 11 39 42 19 54 -20 12 -10 34 18 37
15 2 30 1 34 -2 3 -3 18 -45 33 -95z"/>
<path d="M1908 2025 l-3 -105 48 0 c102 0 145 104 73 176 -27 27 -42 34 -74
34 l-41 0 -3 -105z"/>
</g>
</svg>
